<svg width="24" height="24" viewBox="0 0 24 24" fill="none" xmlns="http://www.w3.org/2000/svg">
<path d="M18.725 9.85C18.625 9.85 18.5583 9.8 18.525 9.7C18.2583 8.66667 17.7417 7.775 16.975 7.025C16.225 6.25833 15.3333 5.73333 14.3 5.45C14.2 5.41667 14.15 5.35 14.15 5.25C14.15 5.13333 14.2 5.06667 14.3 5.05C15.3333 4.78333 16.225 4.275 16.975 3.525C17.7417 2.75833 18.2583 1.85833 18.525 0.824999C18.5583 0.724998 18.625 0.674998 18.725 0.674998C18.8417 0.674998 18.9083 0.724998 18.925 0.824999C19.2083 1.85833 19.725 2.75833 20.475 3.525C21.2417 4.275 22.1417 4.78333 23.175 5.05C23.275 5.06667 23.325 5.13333 23.325 5.25C23.325 5.35 23.275 5.41667 23.175 5.45C22.1417 5.73333 21.2417 6.25833 20.475 7.025C19.725 7.775 19.2083 8.66667 18.925 9.7C18.9083 9.8 18.8417 9.85 18.725 9.85ZM7.65 15.6L9.05 14.175L6.875 12L9.05 9.825L7.625 8.4L4.05 12L7.65 15.6ZM18.925 20.2H3.05C2.41667 20.2 1.875 19.9833 1.425 19.55C0.991667 19.1 0.775 18.5583 0.775 17.925V6.075C0.775 5.44167 0.991667 4.90833 1.425 4.475C1.875 4.025 2.41667 3.8 3.05 3.8H12.3C12.25 4.03333 12.2083 4.275 12.175 4.525C12.1583 4.75833 12.15 5 12.15 5.25C12.15 6.58333 12.4917 7.775 13.175 8.825C13.875 9.875 14.7833 10.6667 15.9 11.2L12.925 14.175L14.325 15.6L18.125 11.825C18.225 11.825 18.325 11.8333 18.425 11.85C18.525 11.85 18.625 11.85 18.725 11.85C19.1583 11.85 19.5833 11.8083 20 11.725C20.4167 11.6417 20.8167 11.525 21.2 11.375V17.925C21.2 18.5583 20.975 19.1 20.525 19.55C20.0917 19.9833 19.5583 20.2 18.925 20.2Z" fill="#F8F9FC"/>
</svg>
