<svg width="24" height="24" viewBox="0 0 24 24" fill="none" xmlns="http://www.w3.org/2000/svg">
<path d="M12 23.3C11.4333 23.3 10.9417 23.1083 10.525 22.725C10.125 22.325 9.925 21.825 9.925 21.225H14.075C14.075 21.825 13.8667 22.325 13.45 22.725C13.05 23.1083 12.5667 23.3 12 23.3ZM8.45 20.225V18H15.55V20.225H8.45ZM8.375 17C7.325 16.3833 6.48333 15.5417 5.85 14.475C5.21667 13.3917 4.9 12.2 4.9 10.9C4.9 8.91667 5.58333 7.24167 6.95 5.875C8.33333 4.49167 10.0167 3.8 12 3.8C12.05 3.8 12.0917 3.8 12.125 3.8C12.175 3.8 12.2167 3.8 12.25 3.8C12.1833 4.03333 12.1333 4.28333 12.1 4.55C12.0833 4.8 12.075 5.05833 12.075 5.325C12.075 7.15833 12.7083 8.71667 13.975 10C15.2583 11.2667 16.825 11.9 18.675 11.9C18.7417 11.9 18.8 11.9 18.85 11.9C18.9 11.9 18.9583 11.9 19.025 11.9C18.875 12.9833 18.5 13.975 17.9 14.875C17.3 15.7583 16.5417 16.4667 15.625 17H8.375ZM18.675 9.9C18.575 9.9 18.5083 9.85 18.475 9.75C18.2083 8.71667 17.6917 7.825 16.925 7.075C16.175 6.30833 15.275 5.79167 14.225 5.525C14.125 5.49167 14.075 5.425 14.075 5.325C14.075 5.20833 14.125 5.14167 14.225 5.125C15.275 4.85833 16.175 4.34167 16.925 3.575C17.6917 2.80833 18.2083 1.90833 18.475 0.874998C18.5083 0.774999 18.575 0.724999 18.675 0.724999C18.7917 0.724999 18.8583 0.774999 18.875 0.874998C19.1583 1.90833 19.675 2.80833 20.425 3.575C21.175 4.34167 22.075 4.85833 23.125 5.125C23.225 5.14167 23.275 5.20833 23.275 5.325C23.275 5.425 23.225 5.49167 23.125 5.525C22.075 5.79167 21.1667 6.30833 20.4 7.075C19.65 7.825 19.1417 8.71667 18.875 9.75C18.8583 9.85 18.7917 9.9 18.675 9.9Z" fill="#F8F9FC"/>
</svg>
