<svg xmlns="http://www.w3.org/2000/svg" width="14.0" height="13.0" viewBox="0.0 0.0 14.0 13.0" fill="none">
<path d="M1.70627 12.6C1.23127 12.6 0.825025 12.4375 0.487525 12.1125C0.162524 11.7875 2.44677e-05 11.3938 2.44677e-05 10.9313C2.44677e-05 10.7563 0.0187744 10.6 0.0562744 10.4625C0.0937746 10.325 0.150025 10.2 0.225025 10.0875L4.36877 4.10625C4.48127 3.93125 4.56877 3.75 4.63127 3.5625C4.69377 3.3625 4.72503 3.1625 4.72503 2.9625V0.900002H4.27502C4.15002 0.900002 4.04377 0.856252 3.95627 0.768753C3.86877 0.681253 3.82502 0.575002 3.82502 0.450002C3.82502 0.325002 3.86877 0.218752 3.95627 0.131253C4.04377 0.0437527 4.15002 2.6226e-06 4.27502 2.6226e-06H8.77503C8.90003 2.6226e-06 9.00627 0.0437527 9.09377 0.131253C9.18128 0.218752 9.22503 0.325002 9.22503 0.450002C9.22503 0.575002 9.18128 0.681253 9.09377 0.768753C9.00627 0.856252 8.90003 0.900002 8.77503 0.900002H8.32502V2.9625C8.32502 3.1625 8.35627 3.3625 8.41877 3.5625C8.48127 3.75 8.56878 3.93125 8.68127 4.10625L12.825 10.0875C12.9 10.2 12.9563 10.325 12.9938 10.4625C13.0313 10.5875 13.05 10.7375 13.05 10.9125C13.05 11.3875 12.8875 11.7875 12.5625 12.1125C12.2375 12.4375 11.8375 12.6 11.3625 12.6H1.70627ZM5.62502 0.900002V2.9625C5.62502 3.25 5.58127 3.53125 5.49377 3.80625C5.41877 4.08125 5.30627 4.33125 5.15627 4.55625L2.71877 8.0625C2.66877 8.1375 2.63127 8.21875 2.60627 8.30625C2.58127 8.38125 2.56877 8.4625 2.56877 8.55C2.56877 8.8125 2.67502 9.0375 2.88752 9.225C3.10002 9.4 3.36252 9.4875 3.67502 9.4875C4.02503 9.4875 4.36877 9.4125 4.70627 9.2625C5.05627 9.1 5.57502 8.7875 6.26252 8.325C6.95002 7.875 7.51877 7.55 7.96877 7.35C8.41878 7.1375 8.86253 7 9.30002 6.9375C9.35002 6.925 9.38127 6.9 9.39377 6.8625C9.41877 6.8125 9.41877 6.76875 9.39377 6.73125L7.93128 4.6125C7.75628 4.375 7.62503 4.11875 7.53753 3.84375C7.46252 3.55625 7.42502 3.2625 7.42502 2.9625V0.900002H5.62502Z" fill="#F8F9FC" />
</svg>