<svg width="24" height="24" viewBox="0 0 24 24" fill="none" xmlns="http://www.w3.org/2000/svg">
<path d="M7.025 16.975H14.025V14.975H7.025V16.975ZM18.925 21.2H5.075C4.44167 21.2 3.9 20.9833 3.45 20.55C3.01667 20.1 2.8 19.5583 2.8 18.925V5.075C2.8 4.44167 3.01667 3.90833 3.45 3.475C3.9 3.025 4.44167 2.8 5.075 2.8H12.575C12.4083 3.18333 12.2833 3.59167 12.2 4.025C12.1167 4.44167 12.075 4.875 12.075 5.325C12.075 5.625 12.0917 5.91667 12.125 6.2C12.175 6.48333 12.2417 6.75833 12.325 7.025H7.025V9.025H13.25C13.85 9.89167 14.6167 10.5917 15.55 11.125C16.5 11.6417 17.5417 11.9 18.675 11.9C19.1083 11.9 19.5417 11.8583 19.975 11.775C20.4083 11.6917 20.8167 11.5667 21.2 11.4V18.925C21.2 19.5583 20.975 20.1 20.525 20.55C20.0917 20.9833 19.5583 21.2 18.925 21.2ZM7.025 13H16.975V11.675C16.675 11.6083 16.3833 11.5167 16.1 11.4C15.8333 11.2833 15.5833 11.15 15.35 11H7.025V13ZM18.675 9.9C18.575 9.9 18.5083 9.85 18.475 9.75C18.2083 8.71667 17.6917 7.825 16.925 7.075C16.175 6.30833 15.275 5.79167 14.225 5.525C14.125 5.49167 14.075 5.425 14.075 5.325C14.075 5.20833 14.125 5.14167 14.225 5.125C15.275 4.85833 16.175 4.34167 16.925 3.575C17.6917 2.80833 18.2083 1.90833 18.475 0.874998C18.5083 0.774999 18.575 0.724999 18.675 0.724999C18.7917 0.724999 18.8583 0.774999 18.875 0.874998C19.1583 1.90833 19.675 2.80833 20.425 3.575C21.175 4.34167 22.075 4.85833 23.125 5.125C23.225 5.14167 23.275 5.20833 23.275 5.325C23.275 5.425 23.225 5.49167 23.125 5.525C22.075 5.79167 21.1667 6.30833 20.4 7.075C19.65 7.825 19.1417 8.71667 18.875 9.75C18.8583 9.85 18.7917 9.9 18.675 9.9Z" fill="#F8F9FC"/>
</svg>
