<svg width="25" height="25" viewBox="0 0 25 25" fill="none" xmlns="http://www.w3.org/2000/svg">
<path d="M20.1357 5.74381C18.2251 4.20631 15.2026 3.94568 15.0732 3.93631C14.8726 3.91943 14.6813 4.03193 14.5988 4.21756C14.5913 4.22881 14.5257 4.38068 14.4526 4.61693C15.7163 4.83068 17.2688 5.26006 18.6732 6.13193C18.8982 6.27068 18.9676 6.56693 18.8288 6.79193C18.737 6.94006 18.5813 7.02068 18.4201 7.02068C18.3338 7.02068 18.2457 6.99631 18.167 6.94756C15.752 5.44943 12.737 5.37443 12.1557 5.37443C11.5745 5.37443 8.5576 5.44943 6.14447 6.94756C5.91947 7.08818 5.62322 7.01881 5.48447 6.79381C5.34385 6.56693 5.41322 6.27256 5.63822 6.13193C7.0426 5.26193 8.5951 4.83068 9.85885 4.61881C9.78572 4.38068 9.7201 4.23068 9.71447 4.21756C9.6301 4.03193 9.44072 3.91568 9.23822 3.93631C9.10885 3.94568 6.08635 4.20631 4.14947 5.76443C3.13885 6.70006 1.11572 12.1676 1.11572 16.8944C1.11572 16.9788 1.13822 17.0594 1.17947 17.1326C2.57447 19.5851 6.3826 20.2263 7.25072 20.2544C7.25447 20.2544 7.2601 20.2544 7.26572 20.2544C7.41947 20.2544 7.56385 20.1813 7.65385 20.0576L8.53135 18.8501C6.16322 18.2388 4.95385 17.2001 4.88447 17.1382C4.68572 16.9638 4.66697 16.6601 4.84322 16.4613C5.0176 16.2626 5.32135 16.2438 5.5201 16.4182C5.54822 16.4444 7.77572 18.3344 12.1557 18.3344C16.5432 18.3344 18.7707 16.4369 18.7932 16.4182C18.992 16.2457 19.2938 16.2626 19.4701 16.4632C19.6445 16.6619 19.6257 16.9638 19.427 17.1382C19.3576 17.2001 18.1482 18.2388 15.7801 18.8501L16.6576 20.0576C16.7476 20.1813 16.892 20.2544 17.0457 20.2544C17.0513 20.2544 17.057 20.2544 17.0607 20.2544C17.9288 20.2263 21.737 19.5851 23.132 17.1326C23.1732 17.0594 23.1957 16.9788 23.1957 16.8944C23.1957 12.1676 21.1726 6.70006 20.1357 5.74381ZM9.03572 14.9744C8.1076 14.9744 7.35572 14.1157 7.35572 13.0544C7.35572 11.9932 8.1076 11.1344 9.03572 11.1344C9.96385 11.1344 10.7157 11.9932 10.7157 13.0544C10.7157 14.1157 9.96385 14.9744 9.03572 14.9744ZM15.2757 14.9744C14.3476 14.9744 13.5957 14.1157 13.5957 13.0544C13.5957 11.9932 14.3476 11.1344 15.2757 11.1344C16.2038 11.1344 16.9557 11.9932 16.9557 13.0544C16.9557 14.1157 16.2038 14.9744 15.2757 14.9744Z" fill="black"/>
</svg>
