<svg width="23" height="21" viewBox="0 0 23 21" fill="none" xmlns="http://www.w3.org/2000/svg">
<path d="M13.0755 0.0144806C12.0648 0.0144806 10.8836 0.807606 10.7055 4.34948C10.8555 4.34573 11.0036 4.33448 11.1555 4.33448C11.3242 4.33448 11.4986 4.34386 11.6655 4.34948C11.7798 2.22136 12.2861 0.974481 13.0755 0.974481C13.413 0.974481 13.6042 1.15823 13.9605 1.54448C14.3767 1.99636 14.9205 2.58323 15.9855 2.80448C15.9686 2.67886 15.9555 2.54386 15.9555 2.41448C15.9555 2.21198 15.9761 2.02073 16.0155 1.82948C15.3555 1.64948 15.0067 1.26886 14.6655 0.899481C14.2848 0.486981 13.848 0.0144806 13.0755 0.0144806ZM18.8355 0.494481C17.7761 0.494481 16.9155 1.35698 16.9155 2.41448C16.9155 3.47198 17.7761 4.33448 18.8355 4.33448C19.8948 4.33448 20.7555 3.47198 20.7555 2.41448C20.7555 1.35698 19.8948 0.494481 18.8355 0.494481ZM11.1555 5.29448C5.33172 5.29448 0.595474 8.26073 0.595474 12.4945C0.595474 16.7282 5.33172 20.1745 11.1555 20.1745C16.9792 20.1745 21.7155 16.7282 21.7155 12.4945C21.7155 8.26073 16.9792 5.29448 11.1555 5.29448ZM2.75547 5.74448C2.05422 5.74448 1.3886 6.03136 0.880474 6.53948C0.0535994 7.36636 -0.117026 8.55511 0.355474 9.53948C1.0811 8.13511 2.32985 6.93698 3.94047 6.04448C3.57485 5.85886 3.16985 5.74448 2.75547 5.74448ZM19.5555 5.74448C19.1411 5.74448 18.7361 5.85886 18.3705 6.04448C19.9811 6.93698 21.2298 8.13511 21.9555 9.53948C22.428 8.55511 22.2573 7.36636 21.4305 6.53948C20.9223 6.03136 20.2567 5.74448 19.5555 5.74448ZM7.31547 9.61448C8.11047 9.61448 8.75547 10.2595 8.75547 11.0545C8.75547 11.8495 8.11047 12.4945 7.31547 12.4945C6.52047 12.4945 5.87547 11.8495 5.87547 11.0545C5.87547 10.2595 6.52047 9.61448 7.31547 9.61448ZM14.9955 9.61448C15.7905 9.61448 16.4355 10.2595 16.4355 11.0545C16.4355 11.8495 15.7905 12.4945 14.9955 12.4945C14.2005 12.4945 13.5555 11.8495 13.5555 11.0545C13.5555 10.2595 14.2005 9.61448 14.9955 9.61448ZM6.86547 14.8945C6.98547 14.9151 7.1036 14.9826 7.18047 15.0895C7.2311 15.1607 8.3561 16.6645 11.1555 16.6645C13.9923 16.6645 15.1192 15.1195 15.1305 15.1045C15.2823 14.8889 15.588 14.8307 15.8055 14.9845C16.0211 15.1364 16.0623 15.427 15.9105 15.6445C15.8542 15.7251 14.4855 17.6245 11.1555 17.6245C7.8236 17.6245 6.45672 15.7251 6.40047 15.6445C6.2486 15.427 6.28797 15.1364 6.50547 14.9845C6.61422 14.9076 6.74547 14.8739 6.86547 14.8945Z" fill="black"/>
</svg>
